<svg xmlns="http://www.w3.org/2000/svg" width="512" height="502" viewBox="0 0 512 502">
  <path fill="#FFFFFF" d="M441.567392,198.491894 L428.761464,167.662807 C428.761464,167.662807 458.641964,100.075961 456.033349,97.467346 L416.192682,58.5752663 C413.584067,55.7295044 345.760074,86.7957388 345.760074,86.7957388 L314.456693,74.2269569 C314.456693,74.2269569 286.710514,5.45437703 282.916165,5.45437703 L226.712367,5.45437703 C222.918018,5.45437703 197.30616,74.2269569 197.30616,74.2269569 L166.002779,87.0328856 C166.002779,87.0328856 96.7559055,57.3895322 93.9101436,60.2352941 L54.5437703,99.1273738 C51.6980083,101.735989 83.4756832,168.137101 83.4756832,168.137101 L70.4326077,198.966188 C70.4326077,198.966188 0,226.000926 0,229.795276 L0,284.576193 C0,288.607689 70.4326077,313.508106 70.4326077,313.508106 L83.2385364,344.337193 C83.2385364,344.337193 53.3580361,411.924039 55.9666512,414.532654 L95.5701714,453.424734 C98.4159333,456.270496 166.239926,425.204261 166.239926,425.204261 L197.543307,438.01019 C197.543307,438.01019 225.289486,506.78277 229.083835,506.78277 L285.287633,506.78277 C289.081982,506.78277 314.69384,437.773043 314.69384,437.773043 L346.234368,424.967114 C346.234368,424.967114 415.244094,454.373321 417.85271,451.764706 L457.693377,412.872626 C460.539138,410.264011 428.761464,343.862899 428.761464,343.862899 L441.804539,313.033812 C441.804539,313.033812 512,285.999074 512,282.204724 L512,227.660954 C512,223.866605 441.567392,198.729041 441.567392,198.729041 L441.567392,198.491894 Z M338.171376,255.881427 C337.983513,277.454757 329.232947,298.069777 313.844881,313.190998 C298.456815,328.312219 277.69189,336.700861 256.118573,336.511348 C210.823529,336.511348 173.828624,300.227883 173.828624,255.881427 C173.828624,211.53497 211.060676,175.725799 256.118573,175.725799 C301.413617,175.725799 338.408522,211.772117 338.408522,255.881427 L338.171376,255.881427 Z" transform="translate(0 -5)"/>
</svg>
